<?xml version="1.0" standalone="no"?>
<!DOCTYPE svg PUBLIC "-//W3C//DTD SVG 20010904//EN"
 "http://www.w3.org/TR/2001/REC-SVG-20010904/DTD/svg10.dtd">
<svg version="1.0" xmlns="http://www.w3.org/2000/svg"
 width="700.000000pt" height="700.000000pt" viewBox="0 0 700.000000 700.000000"
 preserveAspectRatio="xMidYMid meet">
<metadata>
Created by potrace 1.14, written by Peter Selinger 2001-2017
</metadata>
<g transform="translate(0.000000,700.000000) scale(0.100000,-0.100000)"
fill="#000000" stroke="none">
<path d="M687 5642 l-657 -2 2 -2142 3 -2142 1055 -1 c580 0 1061 1 1068 3 9
3 12 441 12 2143 l0 2139 -412 2 c-227 2 -709 2 -1071 0z m627 -2135 c-1 -347
-2 -637 -3 -642 -1 -12 -412 -15 -421 -4 -4 6 -5 1266 -1 1277 1 1 97 2 214 2
l212 0 -1 -633z"/>
<path d="M4965 5642 l-140 -3 -131 -212 c-72 -117 -178 -288 -235 -380 -57
-92 -111 -180 -120 -195 -20 -34 -293 -475 -324 -522 -12 -19 -111 -179 -220
-355 -108 -176 -207 -336 -220 -355 -13 -19 -181 -291 -375 -605 -194 -313
-362 -586 -375 -605 -62 -95 -275 -443 -275 -450 0 -5 -3 -10 -8 -12 -4 -2
-40 -57 -80 -123 -91 -149 -234 -380 -262 -421 -11 -16 -20 -34 -20 -40 0 -5
910 -9 2395 -9 l2395 0 0 2143 0 2142 -327 0 c-181 0 -600 1 -933 3 -333 1
-668 1 -745 -1z m1095 -1523 c40 -11 88 -28 107 -39 19 -11 39 -20 44 -20 6 0
37 -20 69 -45 238 -183 324 -497 210 -765 -25 -57 -64 -126 -85 -146 -6 -7
-22 -25 -36 -40 -106 -126 -289 -205 -472 -205 -423 -1 -727 400 -617 812 27
101 111 238 185 302 86 75 215 139 315 157 75 14 202 8 280 -11z"/>
</g>
</svg>
