<svg width="40" height="40" viewBox="0 0 40 40" fill="none" xmlns="http://www.w3.org/2000/svg">
<path d="M9.16744 35.6H4.81396L4.22791 37.4419H1.29768L5.2814 25.7209H8.69768L12.6837 37.4419H9.75349L9.16744 35.6ZM8.37209 33.0884L7 28.7837L5.62558 33.0884H8.37209Z" fill="white"/>
<path d="M19.6488 35.1651C19.6488 36.5605 18.4442 37.6767 16.1837 37.6767C14.5093 37.6767 13.3186 37.0395 12.6651 35.6837L14.693 34.4767C14.7964 34.7928 15.0025 35.0651 15.2785 35.2505C15.5546 35.4359 15.8846 35.5237 16.2163 35.5C16.8349 35.5 17.2047 35.2674 17.2047 34.8465C17.2047 34.4767 16.9721 34.2605 16.4163 34.2605H15.2535V32.1512H16.1581C16.6953 32.1512 16.9465 31.9488 16.9465 31.5814C16.9465 31.1791 16.6279 30.9791 16.1581 30.9791C15.5233 30.9791 15.086 31.2791 14.786 31.9488L12.7581 30.786C13.4558 29.4302 14.6674 28.8279 16.1093 28.8279C18.1512 28.8279 19.3233 30.0163 19.3233 31.3395C19.3415 31.6964 19.2698 32.0522 19.1145 32.374C18.9593 32.6959 18.7256 32.9735 18.4349 33.1814C18.8046 33.3628 19.1151 33.6456 19.3301 33.9969C19.5451 34.3481 19.6556 34.7533 19.6488 35.1651V35.1651Z" fill="white"/>
<path d="M20.2186 33.2558C20.2149 32.3772 20.4721 31.5173 20.9577 30.7851C21.4432 30.0529 22.1352 29.4812 22.9459 29.1427C23.7566 28.8041 24.6496 28.7139 25.5117 28.8833C26.3738 29.0528 27.1662 29.4744 27.7884 30.0947C28.4106 30.715 28.8347 31.506 29.0069 32.3675C29.1791 33.2291 29.0917 34.1224 28.7557 34.9342C28.4197 35.746 27.8502 36.4397 27.1195 36.9276C26.3888 37.4154 25.5297 37.6753 24.6512 37.6744C24.0686 37.6803 23.4907 37.5701 22.9512 37.3503C22.4117 37.1305 21.9213 36.8055 21.5087 36.3942C21.0961 35.9829 20.7696 35.4936 20.5481 34.9547C20.3266 34.4159 20.2146 33.8384 20.2186 33.2558V33.2558ZM26.5814 33.2558C26.5713 32.8773 26.4499 32.5102 26.2323 32.2003C26.0147 31.8905 25.7106 31.6516 25.3579 31.5137C25.0053 31.3758 24.6199 31.3449 24.2498 31.4248C23.8797 31.5048 23.5414 31.6921 23.2772 31.9634C23.013 32.2346 22.8346 32.5777 22.7643 32.9497C22.6941 33.3218 22.7351 33.7063 22.8822 34.0552C23.0294 34.4041 23.2761 34.7018 23.5915 34.9113C23.907 35.1207 24.2772 35.2324 24.6558 35.2326C24.9149 35.2393 25.1726 35.1924 25.4127 35.0948C25.6528 34.9972 25.8701 34.851 26.0509 34.6653C26.2318 34.4796 26.3722 34.2586 26.4635 34.016C26.5548 33.7735 26.595 33.5146 26.5814 33.2558V33.2558Z" fill="white"/>
<path d="M38.7047 35.0977V39.686H36.2605V37.4419H31.6093V39.686H29.1581V35.0977H30.1977C30.6163 34.4442 30.8674 33.6395 30.8674 32.2V29.0698H37.6116V35.0977H38.7047ZM35.1698 35.0977V31.314H33.3093V32.2C33.3443 33.1888 33.179 34.1744 32.8233 35.0977H35.1698Z" fill="white"/>
<path d="M27.2093 0L12.7907 23.2558H38.8372V0H27.2093ZM33.0233 15.1163C32.3333 15.1163 31.6589 14.9117 31.0852 14.5284C30.5116 14.1451 30.0644 13.6003 29.8004 12.9628C29.5364 12.3254 29.4673 11.624 29.6019 10.9474C29.7365 10.2707 30.0687 9.64911 30.5566 9.16126C31.0445 8.6734 31.666 8.34116 32.3427 8.20656C33.0194 8.07196 33.7208 8.14104 34.3582 8.40507C34.9956 8.6691 35.5404 9.11621 35.9237 9.68987C36.307 10.2635 36.5116 10.938 36.5116 11.6279C36.5116 12.5531 36.1441 13.4404 35.4899 14.0946C34.8357 14.7488 33.9484 15.1163 33.0233 15.1163V15.1163Z" fill="white"/>
<path d="M1.16279 0V23.2558H12.7907V0H1.16279ZM8.13954 15.1163H5.81395V8.13953H8.13954V15.1163Z" fill="white"/>
</svg>
